<svg xmlns="http://www.w3.org/2000/svg" width="16" height="16" viewBox="0 0 16 16"><g><g><path fill="#fff" d="M15.955 1.617V14.54c0 1.006-.528 1.448-1.525 1.448H1.526c-.997 0-1.525-.6-1.525-1.604V1.555C0 .55.59.013 1.589.013H14.4c.996 0 1.556.599 1.556 1.604zM2.021 6.014l-.018 7.957L14 14.04 13.97 6.04l-1.51-.006a4.556 4.556 0 0 1-4.482 5.39A4.557 4.557 0 0 1 3.5 6.018zm10.485-.029h-.056v.003l.056-.003zm1.165-2.992a.689.689 0 0 0-.687-.692h-.896a.689.689 0 0 0-.686.692v.871c.19.216.36.45.506.698a.683.683 0 0 0 .18.024h.896c.38 0 .687-.309.687-.69zm-7.677 4.04c0 1.106.895 2.003 1.998 2.003 1.104 0 2-.897 2-2.003a2.001 2.001 0 0 0-2-2.004 2.001 2.001 0 0 0-1.998 2.004z"/></g></g></svg>