<svg xmlns="http://www.w3.org/2000/svg" width="17" height="14" viewBox="0 0 17 14"><g><g><path fill="#fff" d="M16.998 1.654a6.9 6.9 0 0 1-2.003.556A3.537 3.537 0 0 0 16.528.255a6.936 6.936 0 0 1-2.214.858 3.464 3.464 0 0 0-2.547-1.117C9.842-.004 8.28 1.58 8.28 3.53c0 .277.03.547.09.806C5.471 4.189 2.901 2.78 1.181.644.881 1.164.71 1.772.71 2.42c0 1.226.616 2.307 1.552 2.942a3.438 3.438 0 0 1-1.58-.443v.045c0 1.712 1.202 3.14 2.798 3.465a3.451 3.451 0 0 1-1.576.06c.444 1.404 1.732 2.426 3.258 2.455A6.941 6.941 0 0 1 .83 12.456c-.282 0-.832.14-.832-.05a9.773 9.773 0 0 0 5.346 1.588c6.415 0 9.923-5.384 9.923-10.054 0-.153-.003-.305-.01-.457a7.142 7.142 0 0 0 1.74-1.829z"/></g></g></svg>