<svg xmlns="http://www.w3.org/2000/svg" width="1255" height="300" viewBox="0 0 1255 300"><g><g><g><path fill="#a4eecb" d="M114.17 41.17l8.66-5 5 8.66-8.66 5z"/></g><g opacity=".5"><path fill="#a4eecb" d="M846.009 130.296l5.694-3.287 3.288 5.694-5.694 3.288z"/></g><g><path fill="#a4eecb" d="M400.876 154.464l9.66-2.588 2.588 9.66-9.66 2.588z"/></g><g><path fill="#a4eecb" d="M1055.098 86.552l9.35 3.545-3.546 9.35-9.35-3.545z"/></g><g><path fill="#a4eecb" d="M859.15 22.175l8.675 4.975-4.975 8.675-8.675-4.975z"/></g><g opacity=".5"><path fill="#a4eecb" d="M700.17 222.83l5-8.66 8.66 5-5 8.66z"/></g><g><path fill="#a4eecb" d="M228.8 99.262l16.937 4.539-4.538 16.936-16.937-4.538z"/></g><g><path fill="#a4eecb" d="M625.547 120.47l3.982 17.077-17.076 3.982-3.982-17.076z"/></g><g opacity=".5"><path fill="#a4eecb" d="M340.8 254.262l16.937 4.539-4.538 16.936-16.937-4.538z"/></g><g><path fill="#a4eecb" d="M577.78 7.03L589.47.28l6.749 11.69-11.69 6.749z"/></g><g><path fill="#a4eecb" d="M956.209 276.024l8.767 15.185-15.185 8.767-8.767-15.185z"/></g><g opacity=".5"><path fill="#a4eecb" d="M1255.01 80.558l-21.568 12.452-12.453-21.568 21.569-12.453z"/></g><g opacity=".5"><path fill="#a4eecb" d="M34.01 166.442L21.558 188.01-.011 175.558l12.453-21.569z"/></g></g></g></svg>